<?xml version="1.0" encoding="utf-8"?>
<svg width="220.875" height="29.562" viewBox="0 0 220.875 29.562" xmlns="http://www.w3.org/2000/svg" xmlns:bx="https://boxy-svg.com">
  <defs>
    <style id="bx-google-fonts">@import url(https://fonts.googleapis.com/css?family=ABeeZee:400,400italic);</style>
  </defs>
  <g style="fill: rgb(60, 173, 178);"/>
  <text x="62.216" y="21.381" transform="matrix(1.309423, -0.000388, 0, 1, -53.278084, 2.942765)" style="fill: rgb(63, 135, 189); font-family: ABeeZee; font-size: 25px; font-weight: bold; white-space: pre;">강남구철거</text>
  <path d="M 732 208.554 L 732.81 210.885 L 735.277 210.935 L 733.311 212.426 L 734.026 214.788 L 732 213.378 L 729.974 214.788 L 730.689 212.426 L 728.723 210.935 L 731.19 210.885 Z" transform="matrix(1.000004, 0, 0, 1.000002, -525.931052, -202.96318)" style="fill: rgb(63, 134, 189);" bx:shape="star 732 212 3.446 3.446 0.4 5 1@ffad926b"/>
  <path d="M 708.5 259.772 L 709.141 261.617 L 711.094 261.657 L 709.538 262.837 L 710.103 264.707 L 708.5 263.591 L 706.897 264.707 L 707.462 262.837 L 705.906 261.657 L 707.859 261.617 Z" transform="matrix(0.999994, 0, 0, 1.000006, -509.172841, -238.961137)" style="fill: rgb(63, 134, 189);" bx:shape="star 708.5 262.5 2.728 2.728 0.4 5 1@e503ddea"/>
  <path d="M 93.5 212.484 L 94.209 214.524 L 96.368 214.568 L 94.647 215.873 L 95.273 217.94 L 93.5 216.706 L 91.727 217.94 L 92.353 215.873 L 90.632 214.568 L 92.791 214.524 Z" transform="matrix(0.999999, 0, 0, 1.000002, -70.799374, -205.458068)" style="fill: rgb(63, 134, 189);" bx:shape="star 93.5 215.5 3.016 3.016 0.4 5 1@ed1bc952"/>
  <path d="M 85.5 260.772 L 86.074 262.617 L 87.822 262.657 L 86.429 263.837 L 86.935 265.707 L 85.5 264.591 L 84.065 265.707 L 84.571 263.837 L 83.178 262.657 L 84.926 262.617 Z" transform="matrix(1.000001, 0, 0, 1.000006, -65.097029, -239.673951)" style="fill: rgb(63, 134, 189);" bx:shape="star 85.5 263.5 2.441 2.728 0.4 5 1@59e40074"/>
  <path d="M 63.5 208.128 L 64.074 210.071 L 65.822 210.113 L 64.429 211.355 L 64.935 213.323 L 63.5 212.149 L 62.065 213.323 L 62.571 211.355 L 61.178 210.113 L 62.926 210.071 Z" transform="matrix(1.000001, 0, 0, 0.999998, -49.41522, -202.249599)" style="fill: rgb(63, 134, 189);" bx:shape="star 63.5 211 2.441 2.872 0.4 5 1@cbfdabbb"/>
  <path d="M 71 246.564 L 71.405 247.535 L 72.639 247.556 L 71.655 248.177 L 72.013 249.162 L 71 248.574 L 69.987 249.162 L 70.345 248.177 L 69.361 247.556 L 70.595 247.535 Z" transform="matrix(1.000002, 0, 0, 0.999999, -54.761393, -228.623614)" style="fill: rgb(63, 134, 189);" bx:shape="star 71 248 1.723 1.436 0.4 5 1@b03a0271"/>
  <path d="M 107.5 249.277 L 107.939 250.442 L 109.276 250.468 L 108.21 251.213 L 108.597 252.394 L 107.5 251.689 L 106.403 252.394 L 106.79 251.213 L 105.724 250.468 L 107.061 250.442 Z" transform="matrix(0.999999, 0, 0, 1.000002, -80.778645, -230.762925)" style="fill: rgb(63, 134, 189);" bx:shape="star 107.5 251 1.867 1.723 0.4 5 1@50af5fa2"/>
  <path d="M 701.5 221.059 L 701.939 222.71 L 703.276 222.746 L 702.21 223.802 L 702.597 225.475 L 701.5 224.476 L 700.403 225.475 L 700.79 223.802 L 699.724 222.746 L 701.061 222.71 Z" transform="matrix(0.999992, 0, 0, 0.999998, -504.1814, -211.159605)" style="fill: rgb(63, 134, 189);" bx:shape="star 701.5 223.5 1.867 2.441 0.4 5 1@414b4328"/>
  <path d="M 745.5 247.92 L 746.074 248.989 L 747.822 249.012 L 746.429 249.695 L 746.935 250.778 L 745.5 250.132 L 744.065 250.778 L 744.571 249.695 L 743.178 249.012 L 744.926 248.989 Z" transform="matrix(1.000006, 0, 0, 0.999995, -535.55538, -229.69195)" style="fill: rgb(63, 134, 189);" bx:shape="star 745.5 249.5 2.441 1.58 0.4 5 1@dbb20790"/>
</svg>